# xmcd CD database file
#
# Track frame offsets:
#	150
#	21607
#	48670
#	73337
#	97355
#	119052
#	143635
#	168617
#	169120
#	187625
#	209495
#	222837
#	248637
#	293535
#
# Disc length: 4218 seconds
#
# Revision: 0
# Processed by: cddbd v1.5.1PL0 Copyright (c) Steve Scherf et al.
# Submitted via: CDex 1.51
#
DISCID=df10780e
DTITLE=Various Artist - The Dutch Jazz Connection
DYEAR=1900
DGENRE=Jazz
TTITLE0=Carlo D'Wys and Voices Of Soul - The Promised Land
TTITLE1=Carlo D'Wys and Voices Of Soul - You Sure Have Started Something
TTITLE2=Audible Lifestream - Jimi Knows
TTITLE3=Audible Lifestream - Re-cycling
TTITLE4=Audible Lifestream - Ninna Nanna
TTITLE5=Yuri Honing Trio - Walking On The Moon
TTITLE6=Yuri Honing Trio - Isobel
TTITLE7=Corrie and De Grote Brokken - Bins And Pieces
TTITLE8=Corrie and De Grote Brokken - De Pest
TTITLE9=Corrie and De Grote Brokken - Zoot/Suit 1 and 2
TTITLE10=Corrie and De Grote Brokken - No House
TTITLE11=Corrie and De Grote Brokken - Sabattical Year
TTITLE12=DID d'DIZ meets the Mondriaan Quartet - Misterioso take 1
TTITLE13=DID d'DIZ meets the Mondriaan Quartet - IV Zwier - Tristano-esque
EXTD=
EXTT0=
EXTT1=
EXTT2=
EXTT3=
EXTT4=
EXTT5=
EXTT6=
EXTT7=
EXTT8=
EXTT9=
EXTT10=
EXTT11=
EXTT12=
EXTT13=
PLAYORDER=
